<svg version="1.1" id="Layer_1" xmlns="http://www.w3.org/2000/svg" x="0" y="0" viewBox="0 0 120 40" xml:space="preserve"><style>.st1{fill:#fff}</style><path d="M110.4 0H7.5c-.7 0-1.3.1-2 .2-.6.1-1.3.3-1.9.6C3 1.1 2.5 1.5 2 2S1.1 3 .8 3.6C.5 4.2.3 4.9.2 5.5c-.1.7-.2 1.4-.2 2v24.9c0 .7.1 1.3.2 2s.3 1.3.6 1.9c.3.7.7 1.2 1.2 1.7s1 .9 1.6 1.2c.6.3 1.2.5 1.9.6.7.1 1.3.2 2 .2h104.9c.7 0 1.3-.1 2-.2s1.3-.3 1.9-.6c.6-.3 1.1-.7 1.6-1.2s.9-1 1.2-1.6c.3-.6.5-1.2.6-1.9.1-.7.2-1.3.2-2v-.9V9.5 8.4v-.9c0-.7-.1-1.3-.2-2s-.3-1.3-.6-1.9c-.6-1.2-1.6-2.2-2.8-2.8-.6-.3-1.2-.5-1.9-.6-.7-.1-1.3-.2-2-.2h-2z" fill="#a6a6a6"/><path d="M8.4 39.1h-.9c-.6 0-1.3-.1-1.9-.2-.6-.1-1.1-.3-1.7-.5-.5-.3-1-.6-1.4-1-.4-.4-.8-.9-1-1.4-.3-.5-.4-1.1-.5-1.7-.1-.6-.2-1.2-.2-1.9v-24-.9c0-.6.1-1.3.2-1.9.1-.5.3-1.1.6-1.6s.6-1 1-1.4c.4-.4.9-.7 1.4-1 .5-.3 1.1-.4 1.7-.5C6.3 1 6.9.9 7.6.9h104.9c.6 0 1.2.1 1.9.2.6.1 1.1.3 1.7.5 1 .5 1.9 1.4 2.4 2.4.3.5.4 1.1.5 1.6.1.6.2 1.3.2 1.9v24.9c0 .6-.1 1.2-.2 1.9-.1.6-.3 1.1-.5 1.7-.3.5-.6 1-1 1.4-.4.4-.9.8-1.4 1-.5.3-1.1.5-1.7.5-.6.1-1.2.2-1.9.2H8.4z"/><path class="st1" d="M22.8 20.3c0-1.7.9-3.3 2.4-4.2-.9-1.3-2.4-2.1-4-2.2-1.7-.2-3.3 1-4.2 1-.9 0-2.2-1-3.6-1-1.9.1-3.6 1.1-4.5 2.7-1.9 3.3-.5 8.3 1.4 11 .9 1.3 2 2.8 3.4 2.8 1.4-.1 1.9-.9 3.6-.9 1.7 0 2.1.9 3.6.9s2.4-1.3 3.3-2.7c.7-.9 1.2-2 1.5-3.1-1.8-.6-2.9-2.4-2.9-4.3zM20 12.2c.8-1 1.2-2.2 1.1-3.5-1.2.1-2.4.7-3.2 1.7-.8.9-1.2 2.1-1.1 3.4 1.3 0 2.5-.6 3.2-1.6zM33.7 14.7V9.6h-1.9v-.9h4.7v.8h-1.9v5.1h-.9zm7.1-1.2c-.2.8-1.1 1.4-2 1.3-1.1 0-2.1-.9-2.1-2v-.3c-.2-1.1.6-2.2 1.8-2.3h.3c1.3 0 2 .9 2 2.3v.3h-3.2v.1c-.1.7.4 1.2 1.1 1.3h.1c.4.1.9-.2 1.1-.5h.9zM37.6 12h2.3c0-.6-.4-1.1-1-1.2h-.1c-.6.1-1.2.6-1.2 1.2zm.7-2.6l1-1.4h1l-1.2 1.4h-.8zm3.8-1h.9v6.3h-.9V8.4zm6.1 5.1c-.2.8-1.1 1.4-2 1.3-1.1 0-2.1-.9-2.1-2v-.3c-.2-1.1.6-2.2 1.8-2.3h.3c1.3 0 2 .9 2 2.3v.3H45v.1c0 .5.5 1.1 1.2 1.1h.1c.4.1.9-.2 1.1-.5h.8zM45.1 12h2.3c0-.6-.4-1.1-1-1.2h-.1c-.7.1-1.2.6-1.2 1.2zm.6-2.6l1-1.4h1l-1.2 1.4h-.8zm6.7 2.3c-.1-.5-.6-.8-1.1-.8-.7 0-1.2.6-1.2 1.5 0 1 .5 1.6 1.2 1.6.5.1.9-.3 1.1-.7h.9c-.1.9-1 1.6-1.9 1.5-1.1 0-2.1-.9-2.1-2v-.4c-.2-1.1.6-2.2 1.8-2.3h.3c1-.1 1.8.6 1.9 1.6h-.9zm2-3.3h.9v2.5h.1c.2-.5.8-.9 1.4-.8.8 0 1.5.6 1.6 1.4V14.7h-.9V12c0-.7-.3-1.1-1-1.1-.6 0-1.1.4-1.1 1V14.7h-.9V8.4zm5 5c0-.8.6-1.3 1.7-1.3l1.2-.1v-.4c0-.5-.3-.7-.9-.7-.5 0-.8.2-.9.5h-.9c.1-.8.8-1.3 1.8-1.3 1.1 0 1.8.6 1.8 1.5v3.1h-.9v-.6h-.1c-.3.5-.8.7-1.4.7-.7.1-1.4-.5-1.5-1.2.1-.1.1-.1.1-.2zm2.9-.4v-.4l-1.1.1c-.6 0-.9.3-.9.6 0 .4.4.6.8.6.7.2 1.2-.2 1.2-.9 0 .1 0 .1 0 0zm2.3-2.8h.9v.7h.1c.2-.5.7-.8 1.2-.8h.4v.9h-.6c-.6-.1-1.1.4-1.1 1V14.8h-.9v-4.6zm3.4 5h.9c.1.3.4.5 1.1.5.7 0 1.2-.4 1.2-.9v-.9H71c-.3.5-.8.8-1.4.8-1.2 0-1.9-.9-1.9-2.2 0-1.4.7-2.3 1.9-2.3.6 0 1.1.3 1.4.8h.1v-.7h.9v4.5c0 1-.8 1.7-2.1 1.7-1.1-.1-1.8-.6-1.9-1.3zm3.1-2.8c0-.9-.5-1.5-1.2-1.5-.8 0-1.2.6-1.2 1.5s.4 1.5 1.2 1.5c.8 0 1.2-.6 1.2-1.5zm6.1 1.1c-.2.8-1.1 1.4-1.9 1.3-1.1 0-2.1-.9-2.1-2v-.3c-.2-1.1.6-2.2 1.8-2.3h.3c1.3 0 2 .9 2 2.3v.3h-3.2v.1c-.1.5.4 1.1 1.1 1.1h.1c.4.1.9-.2 1.1-.5h.8zM74.1 12h2.3c0-.6-.4-1.1-1-1.2h-.1c-.7.1-1.2.6-1.2 1.2zm4.4-1.8h.9v.7h.1c.2-.5.7-.8 1.2-.8h.4v.9c-.2 0-.3-.1-.5-.1-.6-.1-1.1.4-1.1 1V14.7h-.9l-.1-4.5zm5.7 2.2c0-1.4.7-2.3 1.9-2.3.6 0 1.1.3 1.4.8h.1V8.4h.9v6.3h-.9V14h-.1c-.3.5-.8.8-1.4.8-1.2 0-1.9-.9-1.9-2.4zm.9 0c0 1 .4 1.5 1.2 1.5.7 0 1.2-.6 1.2-1.5s-.5-1.5-1.2-1.5-1.2.6-1.2 1.5zm4.5 1c0-.8.6-1.3 1.7-1.3l1.2-.1v-.4c0-.5-.3-.7-.9-.7-.5 0-.8.2-.9.5h-.9c.1-.8.8-1.3 1.8-1.3 1.1 0 1.8.6 1.8 1.5v3.1h-.9v-.6h-.1c-.3.5-.8.7-1.4.7-.7.1-1.4-.5-1.5-1.2.1-.1.1-.1.1-.2zm2.9-.4v-.4l-1.1.1c-.6 0-.9.3-.9.6 0 .4.4.6.8.6.6.2 1.1-.2 1.2-.9 0 .1 0 .1 0 0zm2.3-2.8h.9v.7h.1c.2-.5.8-.8 1.3-.8.8-.1 1.5.5 1.6 1.4V14.7h-.9V12c0-.7-.3-1.1-1-1.1-.6 0-1.1.4-1.1 1V14.7h-.9v-4.5zm6.8-.1c1 0 1.7.5 1.8 1.3h-.9c-.1-.3-.4-.5-.9-.5s-.9.2-.9.6c0 .3.2.4.7.6l.7.2c.9.2 1.3.6 1.3 1.2 0 .8-.8 1.4-1.9 1.4-1.1 0-1.8-.5-1.8-1.3h.9c.2.4.6.6 1 .6.6 0 .9-.2.9-.6 0-.3-.2-.4-.7-.6l-.8-.2c-.9-.2-1.3-.6-1.3-1.3.2-.8.9-1.4 1.9-1.4zM33.2 18.1h1.9v12.4h-1.9V18.1zm4.1 4.5l1-4.5h1.8l-1.2 4.5h-1.6zm9.8 4.5h-4.7l-1.1 3.4h-2l4.5-12.4h2.1l4.5 12.4h-2l-1.3-3.4zm-4.2-1.5h3.8l-1.8-5.4h-.1l-1.9 5.4zM60 26c0 2.8-1.5 4.6-3.8 4.6-1.2.1-2.3-.6-2.8-1.6v4.5h-1.9v-12h1.8V23c.6-1 1.7-1.6 2.9-1.6 2.3-.1 3.8 1.8 3.8 4.6zm-1.9 0c0-1.8-.9-3-2.4-3-1.4 0-2.4 1.2-2.4 3s1 3 2.4 3 2.4-1.2 2.4-3zM70 26c0 2.8-1.5 4.6-3.8 4.6-1.2 0-2.3-.6-2.9-1.6v4.5h-1.9v-12h1.8V23c.6-1 1.7-1.6 2.9-1.6 2.4-.1 3.9 1.8 3.9 4.6zm-1.9 0c0-1.8-.9-3-2.4-3-1.4 0-2.4 1.2-2.4 3s1 3 2.4 3 2.4-1.2 2.4-3zm8.5 1c.1 1.2 1.3 2 3 2 1.6 0 2.7-.8 2.7-1.9 0-1-.7-1.5-2.3-1.9l-1.6-.4c-2.4-.5-3.4-1.6-3.4-3.3 0-2.1 1.9-3.6 4.5-3.6s4.4 1.5 4.5 3.6h-1.9c-.1-1.2-1.1-2-2.6-2s-2.5.8-2.5 1.9c0 .9.7 1.4 2.3 1.8l1.4.3c2.5.6 3.6 1.6 3.6 3.4 0 2.3-1.8 3.8-4.8 3.8-2.8 0-4.6-1.4-4.7-3.7h1.8zm11.6-7.7v2.1h1.7v1.5h-1.7v5c0 .8.3 1.1 1.1 1.1h.6v1.5c-.3.1-.7.1-1 .1-1.8 0-2.5-.7-2.5-2.4V23H85v-1.5h1.3v-2.1l1.9-.1zm2.7 6.7c0-2.9 1.7-4.6 4.3-4.6 2.6 0 4.3 1.8 4.3 4.6 0 2.9-1.7 4.6-4.3 4.6s-4.3-1.8-4.3-4.6zm6.7 0c0-2-.9-3.1-2.4-3.1S92.8 24 92.8 26s.9 3.1 2.4 3.1 2.4-1.2 2.4-3.1zm3.4-4.6h1.8V23c.2-1 1.2-1.7 2.2-1.6.2 0 .4 0 .6.1v1.7c-.3-.1-.6-.1-.8-.1-1 0-1.9.8-1.9 1.8v5.7H101v-9.2zm13.2 6.4c-.2 1.6-1.8 2.8-3.9 2.8-2.6 0-4.3-1.8-4.3-4.6s1.6-4.7 4.2-4.7c2.5 0 4.1 1.7 4.1 4.5v.6h-6.4v.1c-.1 1.3.8 2.4 2.1 2.6h.3c.9.1 1.8-.4 2.1-1.3h1.8zm-6.3-2.7h4.5c.1-1.2-.9-2.2-2.1-2.3h-.2c-1.1 0-2.1 1-2.2 2.3z"/></svg>